# xmcd
#
# Track frame offsets:
#	150
#	11385
#	21261
#	32728
#	41107
#	51823
#	65197
#	78199
#	89320
#	101842
#	113197
#	124598
#	138690
#	150696
#	161325
#	171975
#	183405
#	196147
#	208834
#	220238
#	232935
#	243309
#	254391
#	268401
#	279418
#	291973
#	302593
#	313564
#
# Disc length: 4325 seconds
#
# Revision: 1
# Processed by: cddbd v1.5.2PL0 Copyright (c) Steve Scherf et al.
# Submitted via: audiograbber 1.83.01
#
DISCID=9610e31c
DTITLE=The Osborne Brothers - The Osborne Brothers 1956-1968 CD3
DYEAR=1995
DGENRE=Bluegrass
TTITLE0=Take This Hammer
TTITLE1=Don't Even Look At Me
TTITLE2=The Cuckoo Bird
TTITLE3=Bluegrass Express
TTITLE4=Me And My Old Banjo
TTITLE5=Pathway Of Teardrops
TTITLE6=Gotta Travel On
TTITLE7=Salty Dog Blues
TTITLE8=Kentucky
TTITLE9=Bugle On The Banjo (Bugle Call Rag)
TTITLE10=Cotton Fields
TTITLE11=Faded Love
TTITLE12=This Heart Of Mine (Can Never Say Goodbye)
TTITLE13=Charlie Cotton
TTITLE14=I'll Be Alright Tomorrow
TTITLE15=Cut The Cornbread
TTITLE16=Hey Hey Bartender
TTITLE17=Lonesome Day
TTITLE18=Big Spike Hammer
TTITLE19=Memories
TTITLE20=I Know What It Means To Be Lonesome
TTITLE21=Up This Hill And Down
TTITLE22=In The Pines
TTITLE23=One Tear
TTITLE24=Making Plans
TTITLE25=Yesterday's Gone
TTITLE26=Footprints In The Snow
TTITLE27=Sure-Fire
EXTD=
EXTT0=
EXTT1=
EXTT2=
EXTT3=
EXTT4=
EXTT5=
EXTT6=
EXTT7=
EXTT8=
EXTT9=
EXTT10=
EXTT11=
EXTT12=
EXTT13=
EXTT14=
EXTT15=
EXTT16=
EXTT17=
EXTT18=
EXTT19=
EXTT20=
EXTT21=
EXTT22=
EXTT23=
EXTT24=
EXTT25=
EXTT26=
EXTT27=
PLAYORDER=
